<?xml version="1.0" standalone="no"?>
<!DOCTYPE svg PUBLIC "-//W3C//DTD SVG 20010904//EN"
 "http://www.w3.org/TR/2001/REC-SVG-20010904/DTD/svg10.dtd">
<svg version="1.0" xmlns="http://www.w3.org/2000/svg"
 width="1272.000000pt" height="1272.000000pt" viewBox="0 0 1272.000000 1272.000000"
 preserveAspectRatio="xMidYMid meet">
<metadata>
Created by potrace 1.14, written by Peter Selinger 2001-2017
</metadata>
<g transform="translate(0.000000,1272.000000) scale(0.100000,-0.100000)"
fill="#000000" stroke="none">
<path d="M0 6382 l0 -4338 28 -3 c59 -6 78 -6 103 0 15 4 32 3 40 -1 7 -5 21
-4 31 1 12 6 18 6 18 0 0 -7 8 -7 23 -2 12 5 31 5 43 1 11 -5 27 -4 34 0 7 4
19 6 26 3 21 -8 77 -9 105 -2 15 4 32 3 40 -1 7 -5 21 -4 31 1 12 6 18 6 18 0
0 -7 8 -7 22 -2 13 5 32 5 43 1 11 -4 30 -3 43 1 13 5 21 6 19 1 -8 -11 87 -8
95 3 5 7 8 7 8 0 0 -10 70 -11 97 -1 7 3 13 1 13 -3 0 -5 15 -6 33 -2 17 3 50
4 72 1 22 -3 50 -2 62 2 12 4 25 3 28 -1 3 -5 20 -6 38 -2 18 5 41 5 52 1 11
-4 30 -3 43 1 13 5 21 6 19 1 -5 -7 46 -7 115 1 21 2 40 2 42 -1 5 -4 130 -6
151 -2 6 1 13 2 18 1 29 -8 168 -4 171 4 3 6 5 6 5 0 1 -10 71 -11 98 -1 7 3
13 1 13 -3 0 -5 15 -6 33 -2 17 4 46 6 62 4 70 -8 91 -8 116 -2 15 4 32 3 40
-1 7 -5 21 -4 31 1 12 6 18 6 18 0 0 -7 8 -7 23 -2 12 5 31 5 43 1 11 -5 27
-5 34 0 7 4 24 5 39 1 28 -7 84 -6 105 2 7 3 19 1 26 -3 8 -5 22 -4 32 1 12 6
18 6 18 0 0 -7 8 -7 23 -2 12 5 31 5 42 1 11 -4 30 -3 43 1 13 5 21 6 19 1 -8
-11 87 -8 95 3 5 7 8 7 8 0 0 -10 70 -11 97 -1 7 3 13 1 13 -3 0 -5 15 -6 33
-2 17 3 50 4 72 1 22 -3 50 -2 62 2 12 4 25 3 28 -1 3 -5 20 -6 38 -2 18 5 41
5 52 1 11 -4 30 -3 43 1 13 5 21 6 19 1 -5 -7 46 -7 115 1 21 2 40 2 42 -1 5
-4 130 -6 151 -2 6 1 13 2 18 1 29 -8 168 -4 171 4 3 6 5 6 5 0 1 -10 71 -11
98 -1 7 3 13 1 13 -3 0 -5 15 -6 33 -2 17 4 46 6 62 4 70 -8 91 -8 116 -2 15
4 32 3 40 -1 7 -5 21 -4 31 1 12 6 18 6 18 0 0 -7 8 -7 23 -2 12 5 31 5 43 1
11 -5 27 -5 34 0 7 4 24 5 39 1 28 -7 84 -6 105 2 7 3 19 1 26 -3 8 -5 22 -4
32 1 12 6 18 6 18 0 0 -7 8 -7 23 -2 12 5 31 5 42 1 11 -4 30 -3 43 1 13 5 21
6 19 1 -8 -11 87 -8 95 3 5 7 8 7 8 0 0 -10 70 -11 97 -1 7 3 13 1 13 -3 0 -5
15 -6 33 -2 17 3 50 4 72 1 22 -3 50 -2 62 2 12 4 25 3 28 -1 3 -5 20 -6 38
-2 18 5 41 5 52 1 11 -4 30 -3 43 1 13 5 21 6 19 1 -5 -7 46 -7 115 1 21 2 40
2 42 -1 5 -4 130 -6 151 -2 6 1 13 2 18 1 29 -8 168 -4 171 4 3 6 5 6 5 0 1
-10 71 -11 98 -1 7 3 13 1 13 -3 0 -5 15 -6 33 -2 40 8 59 7 73 -1 6 -4 24 -4
40 0 16 5 39 7 52 5 12 -2 32 -4 45 -6 12 -2 30 1 40 5 9 5 17 5 17 1 0 -5 29
-6 65 -3 35 3 73 3 82 -1 10 -3 28 -2 41 2 13 5 21 6 19 1 -6 -8 151 -7 160 1
3 3 15 2 27 -3 13 -4 28 -5 34 -1 7 4 35 5 62 1 31 -4 51 -2 54 4 3 7 5 7 5 1
1 -10 71 -11 98 -1 7 3 13 1 13 -3 0 -5 15 -6 33 -2 17 3 50 4 72 1 22 -3 50
-2 62 2 12 4 25 3 28 -1 3 -5 20 -6 38 -2 18 5 41 5 52 1 11 -4 30 -3 43 1 13
5 21 6 19 1 -5 -7 46 -7 115 1 21 2 40 2 42 -1 5 -4 130 -6 151 -2 6 1 13 2
18 1 29 -8 168 -4 171 4 3 6 5 6 5 0 1 -10 71 -11 98 -1 7 3 13 1 13 -3 0 -5
15 -6 33 -2 17 4 46 6 62 4 70 -8 91 -8 116 -2 15 4 32 3 40 -1 7 -5 21 -4 31
1 12 6 18 6 18 0 0 -7 8 -7 23 -2 12 5 31 5 43 1 11 -5 27 -5 34 0 7 4 24 5
39 1 28 -7 84 -6 105 2 7 3 19 1 26 -3 8 -5 22 -4 32 1 12 6 18 6 18 0 0 -7 8
-7 23 -2 12 5 31 5 42 1 11 -4 30 -3 43 1 13 5 21 6 19 1 -8 -11 87 -8 95 3 5
7 8 7 8 0 0 -10 70 -11 97 -1 7 3 13 1 13 -3 0 -5 15 -6 33 -2 17 3 50 4 72 1
22 -3 50 -2 62 2 12 4 25 3 28 -1 3 -5 20 -6 38 -2 18 5 41 5 52 1 11 -4 30
-3 43 1 13 5 21 6 19 1 -5 -7 46 -7 115 1 21 2 40 2 42 -1 5 -4 130 -6 151 -2
6 1 13 2 18 1 29 -8 168 -4 171 4 3 6 5 6 5 0 1 -10 71 -11 98 -1 7 3 13 1 13
-3 0 -5 15 -6 33 -2 17 4 46 6 62 4 70 -8 91 -8 116 -2 15 4 32 3 40 -1 7 -5
21 -4 31 1 12 6 18 6 18 0 0 -7 8 -7 23 -2 12 5 31 5 43 1 11 -5 27 -5 34 0 7
4 24 5 39 1 28 -7 84 -6 105 2 7 3 19 1 26 -3 8 -5 22 -4 32 1 12 6 18 6 18 0
0 -7 8 -7 23 -2 12 5 31 5 43 1 11 -5 27 -5 34 0 7 4 24 5 39 1 28 -7 84 -6
105 2 7 3 19 1 26 -3 8 -5 22 -4 32 1 12 6 18 6 18 0 0 -7 8 -7 23 -2 12 5 31
5 43 1 11 -5 27 -5 34 0 7 4 24 5 39 1 28 -7 84 -6 105 2 7 3 19 1 26 -3 8 -5
22 -4 32 1 12 6 18 6 18 0 0 -7 8 -7 23 -2 12 5 31 5 42 1 11 -4 30 -3 43 1
13 5 21 6 19 1 -8 -11 87 -8 95 3 5 7 8 7 8 0 0 -10 70 -11 97 -1 7 3 13 1 13
-3 0 -5 15 -6 33 -2 17 3 50 4 72 1 22 -3 50 -2 62 2 12 4 25 3 28 -1 3 -5 20
-6 38 -2 18 5 41 5 52 1 11 -4 30 -3 43 1 13 5 21 6 19 1 -5 -7 46 -7 115 1
21 2 40 2 42 -1 5 -4 130 -6 151 -2 6 1 13 2 18 1 29 -8 168 -4 171 4 3 6 5 6
5 0 1 -10 71 -11 98 -1 7 3 13 1 13 -3 0 -5 15 -6 33 -2 17 4 46 6 62 4 70 -8
91 -8 116 -2 15 4 32 3 40 -1 7 -5 21 -4 31 1 12 6 18 6 18 0 0 -7 8 -7 23 -2
12 5 31 5 43 1 11 -5 27 -5 34 0 7 4 24 5 39 1 29 -7 84 -6 108 3 8 4 21 2 28
-4 9 -7 15 -8 19 -1 8 13 11 79 4 87 -4 3 -3 18 1 32 5 15 5 36 1 47 -4 11 -3
28 2 38 6 11 5 17 -2 17 -7 0 -8 6 -2 18 5 9 6 28 2 42 -4 14 -3 33 2 43 5 10
5 17 -1 17 -6 0 -6 11 -2 28 5 15 5 37 0 49 -5 13 -4 25 1 28 5 3 6 15 1 28
-5 12 -5 34 -1 48 4 15 4 32 0 39 -4 7 -4 24 0 39 4 14 4 35 0 46 -4 11 -3 28
2 38 6 11 5 17 -2 17 -7 0 -8 6 -2 17 5 10 6 29 2 43 -4 14 -3 33 2 42 5 10 4
19 -2 23 -6 4 -7 11 -4 17 8 13 8 117 1 125 -3 2 -2 17 3 32 4 16 4 34 0 41
-4 7 -4 24 0 39 4 14 4 35 0 46 -4 11 -3 28 2 38 6 11 5 17 -2 17 -7 0 -8 6
-2 18 5 9 6 28 2 42 -4 14 -3 33 2 42 5 11 5 18 -1 18 -6 0 -6 11 -2 28 5 15
5 37 0 49 -5 13 -4 25 1 28 5 3 6 15 1 28 -5 12 -5 34 -1 48 4 15 4 32 0 39
-4 7 -4 24 0 39 4 14 4 35 0 46 -4 11 -3 28 2 38 6 11 5 17 -2 17 -7 0 -8 6
-2 17 5 10 6 29 2 43 -4 14 -3 33 2 42 5 10 4 19 -2 23 -6 4 -7 11 -4 17 8 13
8 117 1 125 -3 2 -2 17 3 32 4 16 4 34 0 41 -4 7 -4 24 0 39 4 14 4 35 0 46
-4 11 -3 28 2 38 6 11 5 17 -2 17 -7 0 -8 6 -2 17 5 10 6 29 2 43 -4 14 -3 33
2 43 5 10 5 17 -1 17 -6 0 -6 11 -2 28 5 15 5 37 0 49 -5 13 -4 25 1 28 5 3 6
15 1 28 -5 12 -5 34 -1 48 4 15 4 32 0 39 -4 7 -4 24 0 39 4 14 4 35 0 46 -4
11 -3 28 2 37 6 12 5 18 -2 18 -7 0 -8 6 -2 17 5 10 6 29 2 43 -4 14 -3 33 2
42 5 10 4 19 -2 23 -6 4 -7 11 -4 17 8 13 8 117 1 125 -3 2 -2 17 3 32 4 16 4
34 0 41 -4 7 -4 25 0 40 4 15 4 33 0 40 -4 7 -4 25 0 40 4 15 4 33 0 40 -4 7
-4 24 0 39 4 14 4 35 0 46 -4 11 -3 28 2 38 6 11 5 17 -2 17 -7 0 -8 6 -2 18
5 9 6 28 2 42 -4 14 -3 33 2 42 5 10 4 19 -2 23 -6 4 -7 11 -4 17 8 13 8 117
1 125 -3 2 -2 17 3 32 4 16 4 34 0 41 -4 7 -4 24 0 39 4 14 4 35 0 46 -4 11
-3 28 2 38 6 11 5 17 -2 17 -7 0 -8 6 -2 18 5 9 6 28 2 42 -4 14 -3 33 2 43 5
10 5 17 -1 17 -6 0 -6 11 -2 28 5 15 5 37 0 49 -5 13 -4 25 1 28 5 3 6 15 1
28 -5 12 -5 34 -1 48 4 15 4 32 0 39 -4 7 -4 24 0 39 4 14 4 35 0 46 -4 11 -3
28 2 38 6 11 5 17 -2 17 -7 0 -8 6 -2 18 5 9 6 28 2 42 -4 14 -3 33 2 42 5 10
4 19 -2 23 -6 4 -7 11 -4 17 8 13 8 117 1 125 -3 2 -2 17 3 32 4 16 4 34 0 41
-4 7 -4 24 0 39 4 14 4 35 0 46 -4 11 -3 28 2 38 6 11 5 17 -2 17 -7 0 -8 6
-2 18 5 9 6 28 2 42 -4 14 -3 33 2 43 5 10 5 17 -1 17 -6 0 -6 11 -2 28 5 15
5 37 0 49 -5 13 -4 25 1 28 5 3 6 15 1 28 -5 12 -5 34 -1 48 4 15 4 32 0 39
-4 7 -4 24 0 39 4 14 4 35 0 46 -4 11 -3 28 2 38 6 11 5 17 -2 17 -7 0 -8 6
-2 17 5 10 6 29 2 43 -4 14 -3 33 2 42 5 10 4 19 -2 23 -6 4 -7 11 -4 17 8 13
8 117 1 125 -3 2 -2 17 3 32 4 16 4 34 0 41 -4 7 -4 25 0 40 4 15 4 33 0 40
-4 7 -4 25 0 40 4 15 4 33 0 40 -4 7 -4 24 0 39 4 14 4 35 0 46 -4 11 -3 28 2
38 6 11 5 17 -2 17 -7 0 -8 6 -2 18 5 9 6 28 2 42 -4 14 -3 33 2 42 5 10 4 19
-2 23 -6 4 -7 11 -4 17 8 13 8 117 1 125 -3 2 -2 17 3 32 4 16 4 34 0 41 -4 7
-4 24 0 39 4 14 4 35 0 46 -4 11 -3 28 2 38 6 11 5 17 -2 17 -7 0 -8 6 -2 18
5 9 6 28 2 42 -4 14 -3 33 2 43 5 10 5 17 -1 17 -6 0 -6 11 -2 28 5 15 5 37 0
49 -5 13 -4 25 1 28 5 3 6 15 1 28 -5 12 -5 34 -1 48 4 15 4 32 0 39 -4 7 -4
24 0 39 4 14 4 35 0 46 -4 11 -3 28 2 38 6 11 5 17 -2 17 -7 0 -8 6 -2 18 5 9
6 28 2 42 -4 14 -3 33 2 42 5 10 4 19 -2 23 -6 4 -7 11 -4 17 8 13 8 117 1
125 -3 2 -2 17 3 32 4 16 4 34 0 41 -4 7 -4 24 0 39 4 14 4 35 0 46 -4 11 -3
28 2 38 6 11 5 17 -2 17 -7 0 -8 6 -2 18 5 9 6 28 2 42 -4 14 -3 33 2 43 5 10
5 17 -1 17 -6 0 -6 11 -2 28 5 15 5 37 0 49 -5 13 -4 25 1 28 5 3 6 15 1 28
-5 12 -5 34 -1 48 4 15 4 32 0 39 -4 7 -4 24 0 39 4 14 4 35 0 46 -4 11 -3 28
2 38 6 11 5 17 -2 17 -7 0 -8 6 -2 18 5 9 6 28 2 42 -4 14 -3 33 2 42 5 10 4
19 -2 23 -6 4 -7 11 -4 17 8 13 8 117 1 125 -3 2 -2 17 3 32 4 16 4 34 0 41
-4 7 -4 25 0 40 4 15 4 33 0 40 -4 7 -4 25 0 40 4 15 4 33 0 40 -4 7 -4 24 0
39 4 14 4 35 0 46 -4 11 -3 28 2 38 6 11 5 17 -2 17 -7 0 -8 6 -2 18 5 9 6 28
2 42 -4 14 -3 33 2 42 5 10 4 19 -2 23 -6 4 -7 11 -4 17 4 6 6 36 5 67 -1 31
-2 64 -2 74 0 16 -309 17 -6340 17 l-6339 0 0 -4338z"/>
</g>
</svg>
