<?xml version="1.0" standalone="no"?>
<!DOCTYPE svg PUBLIC "-//W3C//DTD SVG 20010904//EN"
 "http://www.w3.org/TR/2001/REC-SVG-20010904/DTD/svg10.dtd">
<svg version="1.0" xmlns="http://www.w3.org/2000/svg"
 width="32.000000pt" height="32.000000pt" viewBox="0 0 32.000000 32.000000"
 preserveAspectRatio="xMidYMid meet">

<g transform="translate(0.000000,32.000000) scale(0.100000,-0.100000)"
fill="#000000" stroke="none">
<path d="M16 304 c-23 -23 -23 -265 0 -288 23 -23 265 -23 288 0 23 23 23 265
0 288 -23 23 -265 23 -288 0z m74 -130 l0 -66 30 4 c24 4 30 1 30 -13 0 -15
-8 -18 -47 -16 l-47 2 0 78 c-1 67 1 77 17 77 14 0 17 -10 17 -66z m168 42 c3
-15 0 -17 -14 -11 -49 20 -61 -2 -17 -30 36 -23 46 -40 38 -66 -11 -34 -105
-38 -105 -4 0 11 5 12 26 5 52 -20 60 14 11 45 -38 24 -46 53 -21 72 27 20 78
13 82 -11z"/>
</g>
</svg>
