<svg version="1.1" id="Layer_1" xmlns="http://www.w3.org/2000/svg" xmlns:xlink="http://www.w3.org/1999/xlink" x="0px" y="0px"
	 width="100%" viewBox="0 0 192 192" enable-background="new 0 0 192 192" xml:space="preserve">
<path fill="#0188FF" opacity="1.000000" stroke="none" 
	d="
M1.000000,183.000000 
	C1.000000,125.979103 1.000000,68.958206 1.254412,11.811241 
	C3.357321,9.399585 5.147007,7.062803 7.075887,4.847202 
	C8.274937,3.469917 9.684771,2.276140 11.000000,1.000000 
	C68.020897,1.000000 125.041786,1.000000 182.192413,1.231683 
	C185.545364,4.752595 188.761856,8.048586 192.020172,11.302687 
	C192.133240,11.415610 192.663956,11.110350 193.000000,11.000000 
	C193.000000,68.020897 193.000000,125.041786 192.745453,182.188950 
	C190.642426,184.600632 188.879929,186.964844 186.897659,189.127609 
	C186.226562,189.859833 184.840424,189.906250 184.077728,190.594711 
	C183.480988,191.133377 183.342239,192.179398 183.000000,193.000000 
	C125.979103,193.000000 68.958206,193.000000 11.811004,192.745392 
	C9.399062,190.642456 7.062174,188.853012 4.846601,186.924194 
	C3.469403,185.725250 2.275935,184.315262 1.000000,183.000000 
M126.990692,52.514275 
	C121.709404,53.881191 116.080467,54.500000 111.214706,56.761120 
	C98.695389,62.578838 95.611176,76.428787 104.257195,87.198303 
	C106.902718,90.493568 110.394249,93.345787 114.005440,95.582024 
	C122.340942,100.743835 131.076645,105.255821 139.470230,110.328857 
	C143.816986,112.955994 144.713120,117.381760 144.019577,122.182571 
	C143.350983,126.810608 140.488510,129.758392 136.277802,131.105942 
	C133.149551,132.107056 129.775726,132.748047 126.499222,132.800873 
	C117.382889,132.947800 108.799263,130.878098 101.302956,124.899345 
	C100.592827,126.386726 100.001968,127.387787 99.620018,128.463074 
	C97.337585,134.888519 97.858292,136.079224 104.228592,138.270920 
	C116.323860,142.432312 128.686905,143.220215 141.134689,140.356918 
	C150.572083,138.186081 157.316254,132.973236 159.345093,122.795029 
	C161.385727,112.557495 157.599152,104.809570 149.510025,98.959259 
	C145.889282,96.340630 141.782928,94.396118 137.911743,92.120529 
	C131.756439,88.502266 125.324036,85.264893 119.554001,81.109436 
	C114.655434,77.581596 113.928665,71.166878 116.778511,66.281937 
	C119.728790,61.224831 125.166878,58.895756 130.860611,61.163651 
	C137.918472,63.974907 144.696335,67.489105 152.165588,70.965118 
	C153.100906,68.219200 154.070251,65.087044 155.232040,62.027981 
	C157.106796,57.091568 154.800705,54.703751 150.222778,54.210308 
	C142.800949,53.410328 135.340485,52.968876 126.990692,52.514275 
M54.504139,139.730942 
	C61.827354,139.811386 69.152962,139.800415 76.473251,139.992554 
	C89.179756,140.326019 89.295303,140.276382 90.281372,127.339165 
	C90.354103,126.384842 90.290916,125.420158 90.290916,123.998787 
	C79.144226,128.289413 68.016869,128.771866 56.623035,127.454803 
	C52.489517,126.977005 51.290344,125.174286 51.369343,121.454811 
	C51.807411,100.828720 52.177315,80.201187 52.586025,59.574455 
	C52.627377,57.487499 52.772068,55.402588 52.888458,52.892853 
	C46.564419,52.892853 40.874847,52.892853 34.947456,52.892853 
	C38.699379,82.423058 36.898357,111.265556 35.445042,139.745834 
	C41.902023,139.745834 47.704655,139.745834 54.504139,139.730942 
z"/>
<path fill="#000000" opacity="1.000000" stroke="none" 
	d="
M193.000000,10.513435 
	C192.663956,11.110350 192.133240,11.415610 192.020172,11.302687 
	C188.761856,8.048586 185.545364,4.752595 182.661072,1.231683 
	C186.252457,1.000000 189.504913,1.000000 193.000000,1.000000 
	C193.000000,4.006597 193.000000,7.016734 193.000000,10.513435 
z"/>
<path fill="#000000" opacity="1.000000" stroke="none" 
	d="
M10.513435,1.000000 
	C9.684771,2.276140 8.274937,3.469917 7.075887,4.847202 
	C5.147007,7.062803 3.357321,9.399585 1.254412,11.342584 
	C1.000000,7.747543 1.000000,4.495087 1.000000,1.000000 
	C4.006597,1.000000 7.016734,1.000000 10.513435,1.000000 
z"/>
<path fill="#000000" opacity="1.000000" stroke="none" 
	d="
M1.000000,183.486572 
	C2.275935,184.315262 3.469403,185.725250 4.846601,186.924194 
	C7.062174,188.853012 9.399062,190.642456 11.342346,192.745392 
	C7.747546,193.000000 4.495092,193.000000 1.000000,193.000000 
	C1.000000,189.993408 1.000000,186.983276 1.000000,183.486572 
z"/>
<path fill="#000000" opacity="1.000000" stroke="none" 
	d="
M183.486572,193.000000 
	C183.342239,192.179398 183.480988,191.133377 184.077728,190.594711 
	C184.840424,189.906250 186.226562,189.859833 186.897659,189.127609 
	C188.879929,186.964844 190.642426,184.600632 192.745453,182.657608 
	C193.000000,186.252457 193.000000,189.504898 193.000000,193.000000 
	C189.993408,193.000000 186.983276,193.000000 183.486572,193.000000 
z"/>
<path fill="#F9FCFF" opacity="1.000000" stroke="none" 
	d="
M127.443512,52.445168 
	C135.340485,52.968876 142.800949,53.410328 150.222778,54.210308 
	C154.800705,54.703751 157.106796,57.091568 155.232040,62.027981 
	C154.070251,65.087044 153.100906,68.219200 152.165588,70.965118 
	C144.696335,67.489105 137.918472,63.974907 130.860611,61.163651 
	C125.166878,58.895756 119.728790,61.224831 116.778511,66.281937 
	C113.928665,71.166878 114.655434,77.581596 119.554001,81.109436 
	C125.324036,85.264893 131.756439,88.502266 137.911743,92.120529 
	C141.782928,94.396118 145.889282,96.340630 149.510025,98.959259 
	C157.599152,104.809570 161.385727,112.557495 159.345093,122.795029 
	C157.316254,132.973236 150.572083,138.186081 141.134689,140.356918 
	C128.686905,143.220215 116.323860,142.432312 104.228592,138.270920 
	C97.858292,136.079224 97.337585,134.888519 99.620018,128.463074 
	C100.001968,127.387787 100.592827,126.386726 101.302956,124.899345 
	C108.799263,130.878098 117.382889,132.947800 126.499222,132.800873 
	C129.775726,132.748047 133.149551,132.107056 136.277802,131.105942 
	C140.488510,129.758392 143.350983,126.810608 144.019577,122.182571 
	C144.713120,117.381760 143.816986,112.955994 139.470230,110.328857 
	C131.076645,105.255821 122.340942,100.743835 114.005440,95.582024 
	C110.394249,93.345787 106.902718,90.493568 104.257195,87.198303 
	C95.611176,76.428787 98.695389,62.578838 111.214706,56.761120 
	C116.080467,54.500000 121.709404,53.881191 127.443512,52.445168 
z"/>
<path fill="#F9FCFF" opacity="1.000000" stroke="none" 
	d="
M54.005714,139.738388 
	C47.704655,139.745834 41.902023,139.745834 35.445042,139.745834 
	C36.898357,111.265556 38.699379,82.423058 34.947456,52.892853 
	C40.874847,52.892853 46.564419,52.892853 52.888458,52.892853 
	C52.772068,55.402588 52.627377,57.487499 52.586025,59.574455 
	C52.177315,80.201187 51.807411,100.828720 51.369343,121.454811 
	C51.290344,125.174286 52.489517,126.977005 56.623035,127.454803 
	C68.016869,128.771866 79.144226,128.289413 90.290916,123.998787 
	C90.290916,125.420158 90.354103,126.384842 90.281372,127.339165 
	C89.295303,140.276382 89.179756,140.326019 76.473251,139.992554 
	C69.152962,139.800415 61.827354,139.811386 54.005714,139.738388 
z"/>
</svg>