<?xml version="1.0" encoding="UTF-8"?>
<!DOCTYPE svg PUBLIC "-//W3C//DTD SVG 1.1//EN" "http://www.w3.org/Graphics/SVG/1.1/DTD/svg11.dtd">
<svg xmlns="http://www.w3.org/2000/svg" version="1.1" width="159px" height="109px" style="shape-rendering:geometricPrecision; text-rendering:geometricPrecision; image-rendering:optimizeQuality; fill-rule:evenodd; clip-rule:evenodd" xmlns:xlink="http://www.w3.org/1999/xlink">
<g><path style="opacity:1" fill="#1e3251" d="M -0.5,-0.5 C 52.5,-0.5 105.5,-0.5 158.5,-0.5C 158.5,35.8333 158.5,72.1667 158.5,108.5C 131.833,108.5 105.167,108.5 78.5,108.5C 87.5176,73.8105 96.5176,39.1438 105.5,4.5C 104.167,4.5 102.833,4.5 101.5,4.5C 92.6027,38.3588 83.6027,72.1922 74.5,106C 74.7432,106.902 75.0766,107.735 75.5,108.5C 50.1667,108.5 24.8333,108.5 -0.5,108.5C -0.5,72.1667 -0.5,35.8333 -0.5,-0.5 Z"/></g>
<g><path style="opacity:1" fill="#9fd0b7" d="M 78.5,108.5 C 77.5,108.5 76.5,108.5 75.5,108.5C 75.0766,107.735 74.7432,106.902 74.5,106C 83.6027,72.1922 92.6027,38.3588 101.5,4.5C 102.833,4.5 104.167,4.5 105.5,4.5C 96.5176,39.1438 87.5176,73.8105 78.5,108.5 Z"/></g>
<g><path style="opacity:1" fill="#adb5c0" d="M 15.5,19.5 C 11.5,19.5 7.5,19.5 3.5,19.5C 3.5,42.8333 3.5,66.1667 3.5,89.5C 2.50242,66.0059 2.16909,42.3392 2.5,18.5C 7.03225,18.1818 11.3656,18.5151 15.5,19.5 Z"/></g>
<g><path style="opacity:1" fill="#fdfdfd" d="M 15.5,19.5 C 15.5,39.1667 15.5,58.8333 15.5,78.5C 26.5,78.5 37.5,78.5 48.5,78.5C 48.5,82.1667 48.5,85.8333 48.5,89.5C 33.5,89.5 18.5,89.5 3.5,89.5C 3.5,66.1667 3.5,42.8333 3.5,19.5C 7.5,19.5 11.5,19.5 15.5,19.5 Z"/></g>
<g><path style="opacity:1" fill="#f9fafa" d="M 151.5,22.5 C 151.815,26.3714 151.482,30.0381 150.5,33.5C 142.027,30.8346 133.361,30.0013 124.5,31C 116.369,37.0524 116.703,42.7191 125.5,48C 133.417,49.5281 141.084,51.8615 148.5,55C 156.504,63.1512 157.671,72.3179 152,82.5C 148.16,87.0042 143.327,89.8376 137.5,91C 126.669,93.6435 116.169,92.8101 106,88.5C 105.175,84.7887 105.341,81.122 106.5,77.5C 116.618,82.1483 126.952,82.6483 137.5,79C 143.12,74.9231 143.787,70.2564 139.5,65C 131.958,62.3505 124.291,60.0172 116.5,58C 109.032,54.4084 105.365,48.4084 105.5,40C 107.723,25.461 116.223,18.6277 131,19.5C 137.996,19.4585 144.83,20.4585 151.5,22.5 Z"/></g>
<g><path style="opacity:1" fill="#939cab" d="M 151.5,22.5 C 152.809,26.3507 152.809,30.3507 151.5,34.5C 150.893,34.3764 150.56,34.0431 150.5,33.5C 151.482,30.0381 151.815,26.3714 151.5,22.5 Z"/></g>
</svg>
